<?xml version="1.0" encoding="UTF-8" standalone="no"?><!DOCTYPE svg PUBLIC "-//W3C//DTD SVG 1.1//EN" "http://www.w3.org/Graphics/SVG/1.1/DTD/svg11.dtd"><svg width="100%" height="100%" viewBox="0 0 6320 1657" version="1.1" xmlns="http://www.w3.org/2000/svg" xmlns:xlink="http://www.w3.org/1999/xlink" xml:space="preserve" xmlns:serif="http://www.serif.com/" style="fill-rule:evenodd;clip-rule:evenodd;stroke-linejoin:round;stroke-miterlimit:2;"><g id="Layer-1" serif:id="Layer 1"><path d="M2184.01,1259.25c-50.825,0 -97.012,-8.295 -138.554,-24.816c-41.558,-16.521 -76.842,-40.546 -105.879,-71.996c-29.046,-31.454 -51.638,-69.583 -67.771,-114.35c-16.142,-44.779 -24.192,-95.783 -24.192,-153.083l0,-521.55l163.355,0l0,531.233c0,29.042 3.633,55.662 10.891,79.862c7.263,24.205 18.154,45.2 32.675,62.93c14.517,17.745 32.671,31.666 54.45,41.75c21.788,10.1 46.784,15.112 75.025,15.112c29.046,0 54.459,-5.012 76.238,-15.112c21.775,-10.084 39.929,-24.005 54.45,-41.75c14.529,-17.73 25.408,-38.725 32.679,-62.93c7.258,-24.2 10.883,-50.82 10.883,-79.862l0,-531.233l163.367,0l0,521.55c0,54.054 -7.871,103.47 -23.6,148.233c-15.725,44.783 -38.325,83.112 -67.767,114.958c-29.454,31.888 -64.946,56.688 -106.483,74.413c-41.563,17.75 -88.146,26.641 -139.767,26.641" style="fill:#4d4d4d;fill-rule:nonzero;"/><path d="M2691.31,373.45l189.979,0l348.509,580.85l9.675,0l-9.675,-166.987l0,-413.863l162.146,0l0,866.425l-171.834,0l-367.862,-613.512l-9.684,0l9.684,166.987l0,446.525l-160.938,0l0,-866.425Z" style="fill:#4d4d4d;fill-rule:nonzero;"/><rect x="3561.63" y="373.45" width="163.354" height="866.425" style="fill:#4d4d4d;"/><path d="M4179.03,787.312l-262.588,-413.863l202.088,0l168.2,283.175l9.687,0l168.196,-283.175l202.079,0l-262.583,413.863l284.371,452.566l-203.296,0l-188.767,-312.195l-9.687,0l-188.767,312.195l-203.296,0l284.363,-452.566Z" style="fill:#4d4d4d;fill-rule:nonzero;"/><path d="M4858.16,373.45l549.363,0l0,154.909l-386.017,0l0,210.541l347.296,0l0,154.892l-347.296,0l0,346.083l-163.346,0l0,-866.425Z" style="fill:#4d4d4d;fill-rule:nonzero;"/><path d="M5868.85,836.927l-291.633,-463.475l194.837,0l173.029,286.8l9.688,0l166.987,-286.8l197.238,0l-286.784,463.475l0,402.95l-163.362,0l0,-402.95Z" style="fill:#4d4d4d;fill-rule:nonzero;"/><g><path d="M214.504,1053.81c0,178.359 145.108,323.467 323.471,323.467c99.887,0 189.325,-45.525 248.712,-116.904c-126.595,-1.063 -228.925,-103.925 -228.925,-230.775l0,-700.142l-343.258,-202.754l0,927.108Z" style="fill:url(#_Linear1);fill-rule:nonzero;"/><path d="M1092.4,1139.57c0,17.844 14.488,32.331 32.333,32.331c17.845,0 32.333,-14.487 32.333,-32.331c0,-17.844 -14.488,-32.332 -32.333,-32.332c-17.845,0.001 -32.333,14.488 -32.333,32.332Z" style="fill:url(#_Linear2);"/><path d="M1278.21,973.075c0,17.845 14.488,32.333 32.334,32.333c17.845,0 32.333,-14.488 32.333,-32.333c0,-17.845 -14.488,-32.333 -32.333,-32.333c-17.846,0 -32.334,14.488 -32.334,32.333Z" style="fill:url(#_Linear3);"/><path d="M976.271,1053.81c0,242.063 -196.229,438.296 -438.296,438.296c-242.063,0 -438.296,-196.233 -438.296,-438.296l0,-994.929l-99.679,-58.879l0,1056.73c0,331.125 268.421,599.55 599.542,599.55l263.858,0c331.117,0 599.542,-268.425 599.542,-599.55l0,-769.275l-120.067,-70.916l0,671.433c34.329,13.05 58.75,46.196 58.75,85.1c0,50.304 -40.779,91.083 -91.083,91.083c-50.3,0 -91.08,-40.779 -91.08,-91.083c0,-38.892 24.434,-71.987 58.746,-85.042l0,-709.691l-121.146,-71.559l0,947.717c34.321,13.058 58.75,46.171 58.75,85.071c0,50.296 -40.779,91.079 -91.083,91.079c-50.3,0 -91.079,-40.783 -91.079,-91.079c0,-38.9 24.433,-72.013 58.746,-85.071l0,-985.912l-116.125,-68.588l0,1053.81Z" style="fill:url(#_Linear4);fill-rule:nonzero;"/></g></g><rect id="Artboard1" x="0" y="0" width="6319.75" height="1656.28" style="fill:none;"/><defs><linearGradient id="_Linear1" x1="0" y1="0" x2="1" y2="0" gradientUnits="userSpaceOnUse" gradientTransform="matrix(1.01418e-13,-1656.28,1656.28,1.01418e-13,731.471,1656.28)"><stop offset="0" style="stop-color:#7bc6cc;stop-opacity:1"/><stop offset="1" style="stop-color:#be93c5;stop-opacity:1"/></linearGradient><linearGradient id="_Linear2" x1="0" y1="0" x2="1" y2="0" gradientUnits="userSpaceOnUse" gradientTransform="matrix(1.01418e-13,-1656.28,1656.28,1.01418e-13,731.471,1656.28)"><stop offset="0" style="stop-color:#7bc6cc;stop-opacity:1"/><stop offset="1" style="stop-color:#be93c5;stop-opacity:1"/></linearGradient><linearGradient id="_Linear3" x1="0" y1="0" x2="1" y2="0" gradientUnits="userSpaceOnUse" gradientTransform="matrix(1.01418e-13,-1656.28,1656.28,1.01418e-13,731.471,1656.28)"><stop offset="0" style="stop-color:#7bc6cc;stop-opacity:1"/><stop offset="1" style="stop-color:#be93c5;stop-opacity:1"/></linearGradient><linearGradient id="_Linear4" x1="0" y1="0" x2="1" y2="0" gradientUnits="userSpaceOnUse" gradientTransform="matrix(1.01418e-13,-1656.28,1656.28,1.01418e-13,731.471,1656.28)"><stop offset="0" style="stop-color:#7bc6cc;stop-opacity:1"/><stop offset="1" style="stop-color:#be93c5;stop-opacity:1"/></linearGradient></defs></svg>