<?xml version="1.0" encoding="UTF-8" standalone="no"?><!DOCTYPE svg PUBLIC "-//W3C//DTD SVG 1.1//EN" "http://www.w3.org/Graphics/SVG/1.1/DTD/svg11.dtd"><svg width="100%" height="100%" viewBox="0 0 26334 6905" version="1.1" xmlns="http://www.w3.org/2000/svg" xmlns:xlink="http://www.w3.org/1999/xlink" xml:space="preserve" xmlns:serif="http://www.serif.com/" style="fill-rule:evenodd;clip-rule:evenodd;stroke-linejoin:round;stroke-miterlimit:2;"><g id="Layer-1" serif:id="Layer 1"><path d="M9100.04,5246.88c-211.771,0 -404.217,-34.563 -577.309,-103.4c-173.158,-68.837 -320.175,-168.942 -441.162,-299.983c-121.025,-131.059 -215.158,-289.93 -282.379,-476.459c-67.259,-186.579 -100.8,-399.096 -100.8,-637.845l0,-2173.13l680.646,0.001l0,2213.47c0,121.009 15.137,231.925 45.379,332.759c30.262,100.854 75.641,188.333 136.146,262.208c60.487,73.938 136.129,131.942 226.874,173.958c90.784,42.084 194.934,62.967 312.605,62.967c121.025,0 226.912,-20.883 317.658,-62.967c90.729,-42.016 166.371,-100.02 226.875,-173.958c60.537,-73.875 105.867,-161.354 136.163,-262.208c30.241,-100.834 45.345,-211.75 45.345,-332.759l0,-2213.47l680.696,0l0,2173.13c0,225.225 -32.796,431.125 -98.333,617.637c-65.521,186.596 -159.688,346.3 -282.363,478.992c-122.725,132.866 -270.608,236.2 -443.679,310.054c-173.179,73.958 -367.275,111.004 -582.362,111.004" style="fill:#fff;fill-rule:nonzero;"/><path d="M11213.8,1556.04l791.579,0l1452.12,2420.21l40.312,0l-40.312,-695.779l0,-1724.43l675.608,0l0,3610.1l-715.975,0l-1532.76,-2556.3l-40.35,0l40.35,695.779l0,1860.52l-670.575,0l0,-3610.1Z" style="fill:#fff;fill-rule:nonzero;"/><rect x="14840.1" y="1556.04" width="680.642" height="3610.1" style="fill:#fff;"/><path d="M17412.6,3280.47l-1094.12,-1724.43l842.034,0.001l700.833,1179.89l40.362,0l700.817,-1179.89l841.996,0l-1094.1,1724.43l1184.88,1885.69l-847.066,0l-786.53,-1300.81l-40.362,0l-786.529,1300.81l-847.067,0l1184.85,-1885.69Z" style="fill:#fff;fill-rule:nonzero;"/><path d="M20242.3,1556.04l2289.01,0l0,645.454l-1608.4,0l0,877.254l1447.07,0l0,645.383l-1447.07,0l0,1442.01l-680.609,0l0,-3610.1Z" style="fill:#fff;fill-rule:nonzero;"/><path d="M24453.5,3487.2l-1215.14,-1931.15l811.821,0l720.954,1195l40.367,0l695.779,-1195l821.825,0l-1194.93,1931.15l0,1678.96l-680.675,0l0,-1678.96Z" style="fill:#fff;fill-rule:nonzero;"/><g><path d="M893.767,4390.88c0,743.162 604.616,1347.78 1347.8,1347.78c416.195,0 788.854,-189.687 1036.3,-487.1c-527.48,-4.429 -953.855,-433.021 -953.855,-961.562l0,-2917.26l-1430.24,-844.808l0,3862.95Z" style="fill:url(#_Linear1);fill-rule:nonzero;"/><path d="M4551.67,4748.21c0,74.35 60.366,134.713 134.721,134.713c74.354,0 134.72,-60.363 134.72,-134.713c0,-74.35 -60.366,-134.716 -134.721,-134.716c-74.354,0.004 -134.72,60.366 -134.72,134.716Z" style="fill:url(#_Linear2);"/><path d="M5325.88,4054.48c0,74.354 60.367,134.721 134.725,134.721c74.354,0 134.721,-60.367 134.721,-134.721c0,-74.354 -60.367,-134.721 -134.721,-134.721c-74.358,0 -134.725,60.367 -134.725,134.721Z" style="fill:url(#_Linear3);"/><path d="M4067.8,4390.88c0,1008.6 -817.621,1826.23 -1826.23,1826.23c-1008.6,0 -1826.23,-817.637 -1826.23,-1826.23l0,-4145.54l-415.329,-245.329l0,4403.04c0,1379.69 1118.42,2498.13 2498.09,2498.13l1099.41,0c1379.65,0 2498.09,-1118.44 2498.09,-2498.13l0,-3205.31l-500.28,-295.483l0,2797.64c143.038,54.375 244.792,192.483 244.792,354.583c0,209.6 -169.912,379.513 -379.512,379.513c-209.584,-0.001 -379.5,-169.913 -379.5,-379.513c0,-162.05 101.808,-299.946 244.775,-354.342l0,-2957.05l-504.775,-298.162l0,3948.82c143.004,54.408 244.791,192.379 244.791,354.462c0,209.567 -169.912,379.496 -379.512,379.496c-209.584,0 -379.496,-169.929 -379.496,-379.496c0,-162.083 101.804,-300.054 244.775,-354.462l0,-4107.97l-483.854,-285.783l0,4390.88Z" style="fill:url(#_Linear4);fill-rule:nonzero;"/></g></g><rect id="Artboard1" x="0" y="0" width="26332.3" height="6901.17" style="fill:none;"/><defs><linearGradient id="_Linear1" x1="0" y1="0" x2="1" y2="0" gradientUnits="userSpaceOnUse" gradientTransform="matrix(4.22575e-13,-6901.17,6901.17,4.22575e-13,3047.8,6901.17)"><stop offset="0" style="stop-color:#7bc6cc;stop-opacity:1"/><stop offset="1" style="stop-color:#be93c5;stop-opacity:1"/></linearGradient><linearGradient id="_Linear2" x1="0" y1="0" x2="1" y2="0" gradientUnits="userSpaceOnUse" gradientTransform="matrix(4.22575e-13,-6901.17,6901.17,4.22575e-13,3047.8,6901.17)"><stop offset="0" style="stop-color:#7bc6cc;stop-opacity:1"/><stop offset="1" style="stop-color:#be93c5;stop-opacity:1"/></linearGradient><linearGradient id="_Linear3" x1="0" y1="0" x2="1" y2="0" gradientUnits="userSpaceOnUse" gradientTransform="matrix(4.22575e-13,-6901.17,6901.17,4.22575e-13,3047.8,6901.17)"><stop offset="0" style="stop-color:#7bc6cc;stop-opacity:1"/><stop offset="1" style="stop-color:#be93c5;stop-opacity:1"/></linearGradient><linearGradient id="_Linear4" x1="0" y1="0" x2="1" y2="0" gradientUnits="userSpaceOnUse" gradientTransform="matrix(4.22575e-13,-6901.17,6901.17,4.22575e-13,3047.8,6901.17)"><stop offset="0" style="stop-color:#7bc6cc;stop-opacity:1"/><stop offset="1" style="stop-color:#be93c5;stop-opacity:1"/></linearGradient></defs></svg>